<svg baseProfile="full" height="100" version="1.1" width="150" xmlns="http://www.w3.org/2000/svg" xmlns:ev="http://www.w3.org/2001/xml-events" xmlns:xlink="http://www.w3.org/1999/xlink"><defs /><rect width="100%" height="100%" fill="#e0e0e0"/><rect fill="green" height="9.74" stroke="green" width="2" x="-1.0" y="21.32" /><line stroke="green" x1="0.0" x2="0.0" y1="14.89" y2="32.87" /><rect fill="green" height="12.1" stroke="green" width="2" x="1.5" y="9.21" /><line stroke="green" x1="2.5" x2="2.5" y1="3.65" y2="26.62" /><rect fill="#cc0022" height="8.44" stroke="#cc0022" width="2" x="4.0" y="9.21" /><line stroke="#cc0022" x1="5.0" x2="5.0" y1="0.0" y2="32.97" /><rect fill="#cc0022" height="7.49" stroke="#cc0022" width="2" x="6.5" y="17.69" /><line stroke="#cc0022" x1="7.5" x2="7.5" y1="15.04" y2="37.37" /><rect fill="#cc0022" height="8.38" stroke="#cc0022" width="2" x="9.0" y="25.15" /><line stroke="#cc0022" x1="10.0" x2="10.0" y1="22.53" y2="52.55" /><rect fill="green" height="7.08" stroke="green" width="2" x="11.5" y="26.46" /><line stroke="green" x1="12.5" x2="12.5" y1="24.88" y2="46.27" /><rect fill="green" height="9.02" stroke="green" width="2" x="14.0" y="17.44" /><line stroke="green" x1="15.0" x2="15.0" y1="8.21" y2="29.78" /><rect fill="green" height="0.78" stroke="green" width="2" x="16.5" y="16.67" /><line stroke="green" x1="17.5" x2="17.5" y1="8.95" y2="19.71" /><rect fill="#cc0022" height="17.06" stroke="#cc0022" width="2" x="19.0" y="16.66" /><line stroke="#cc0022" x1="20.0" x2="20.0" y1="9.63" y2="37.21" /><rect fill="green" height="9.71" stroke="green" width="2" x="21.5" y="24.01" /><line stroke="green" x1="22.5" x2="22.5" y1="18.1" y2="37.31" /><rect fill="green" height="15.39" stroke="green" width="2" x="24.0" y="8.6" /><line stroke="green" x1="25.0" x2="25.0" y1="4.2" y2="25.41" /><rect fill="#cc0022" height="6.38" stroke="#cc0022" width="2" x="26.5" y="8.6" /><line stroke="#cc0022" x1="27.5" x2="27.5" y1="8.15" y2="25.36" /><rect fill="#cc0022" height="17.55" stroke="#cc0022" width="2" x="29.0" y="14.98" /><line stroke="#cc0022" x1="30.0" x2="30.0" y1="10.26" y2="52.1" /><rect fill="#cc0022" height="18.12" stroke="#cc0022" width="2" x="31.5" y="32.52" /><line stroke="#cc0022" x1="32.5" x2="32.5" y1="27.9" y2="56.77" /><rect fill="green" height="15.1" stroke="green" width="2" x="34.0" y="35.55" /><line stroke="green" x1="35.0" x2="35.0" y1="33.57" y2="57.24" /><rect fill="green" height="5.74" stroke="green" width="2" x="36.5" y="29.81" /><line stroke="green" x1="37.5" x2="37.5" y1="26.46" y2="38.46" /><rect fill="#cc0022" height="10.77" stroke="#cc0022" width="2" x="39.0" y="29.81" /><line stroke="#cc0022" x1="40.0" x2="40.0" y1="27.1" y2="44.53" /><rect fill="green" height="0.37" stroke="green" width="2" x="41.5" y="40.23" /><line stroke="green" x1="42.5" x2="42.5" y1="38.28" y2="48.54" /><rect fill="#cc0022" height="19.15" stroke="#cc0022" width="2" x="44.0" y="40.24" /><line stroke="#cc0022" x1="45.0" x2="45.0" y1="36.73" y2="69.82" /><rect fill="green" height="19.93" stroke="green" width="2" x="46.5" y="39.46" /><line stroke="green" x1="47.5" x2="47.5" y1="37.11" y2="60.51" /><rect fill="#cc0022" height="11.57" stroke="#cc0022" width="2" x="49.0" y="39.43" /><line stroke="#cc0022" x1="50.0" x2="50.0" y1="33.52" y2="52.27" /><rect fill="#cc0022" height="1.61" stroke="#cc0022" width="2" x="51.5" y="50.99" /><line stroke="#cc0022" x1="52.5" x2="52.5" y1="41.83" y2="54.98" /><rect fill="green" height="3.08" stroke="green" width="2" x="54.0" y="49.52" /><line stroke="green" x1="55.0" x2="55.0" y1="41.93" y2="53.26" /><rect fill="green" height="22.32" stroke="green" width="2" x="56.5" y="27.2" /><line stroke="green" x1="57.5" x2="57.5" y1="25.54" y2="50.43" /><rect fill="green" height="17.79" stroke="green" width="2" x="59.0" y="9.35" /><line stroke="green" x1="60.0" x2="60.0" y1="9.2" y2="31.72" /><rect fill="#cc0022" height="14.27" stroke="#cc0022" width="2" x="61.5" y="9.37" /><line stroke="#cc0022" x1="62.5" x2="62.5" y1="7.32" y2="30.02" /><rect fill="green" height="2.4" stroke="green" width="2" x="64.0" y="21.24" /><line stroke="green" x1="65.0" x2="65.0" y1="16.93" y2="28.94" /><rect fill="#cc0022" height="3.79" stroke="#cc0022" width="2" x="66.5" y="21.27" /><line stroke="#cc0022" x1="67.5" x2="67.5" y1="12.8" y2="27.0" /><rect fill="green" height="0.53" stroke="green" width="2" x="69.0" y="24.54" /><line stroke="green" x1="70.0" x2="70.0" y1="17.25" y2="28.9" /><rect fill="green" height="11.6" stroke="green" width="2" x="71.5" y="12.92" /><line stroke="green" x1="72.5" x2="72.5" y1="10.97" y2="26.13" /><rect fill="#cc0022" height="4.98" stroke="#cc0022" width="2" x="74.0" y="12.92" /><line stroke="#cc0022" x1="75.0" x2="75.0" y1="7.48" y2="21.29" /><rect fill="green" height="0.76" stroke="green" width="2" x="76.5" y="17.21" /><line stroke="green" x1="77.5" x2="77.5" y1="14.63" y2="18.63" /><rect fill="#cc0022" height="11.17" stroke="#cc0022" width="2" x="79.0" y="17.22" /><line stroke="#cc0022" x1="80.0" x2="80.0" y1="15.32" y2="30.97" /><rect fill="#cc0022" height="0.44" stroke="#cc0022" width="2" x="81.5" y="28.43" /><line stroke="#cc0022" x1="82.5" x2="82.5" y1="26.21" y2="35.3" /><rect fill="#cc0022" height="6.81" stroke="#cc0022" width="2" x="84.0" y="28.88" /><line stroke="#cc0022" x1="85.0" x2="85.0" y1="26.64" y2="39.32" /><rect fill="#cc0022" height="2.87" stroke="#cc0022" width="2" x="86.5" y="35.69" /><line stroke="#cc0022" x1="87.5" x2="87.5" y1="29.69" y2="42.11" /><rect fill="#cc0022" height="9.92" stroke="#cc0022" width="2" x="89.0" y="38.58" /><line stroke="#cc0022" x1="90.0" x2="90.0" y1="37.59" y2="61.51" /><rect fill="#cc0022" height="5.97" stroke="#cc0022" width="2" x="91.5" y="48.56" /><line stroke="#cc0022" x1="92.5" x2="92.5" y1="45.95" y2="55.89" /><rect fill="green" height="10.28" stroke="green" width="2" x="94.0" y="44.25" /><line stroke="green" x1="95.0" x2="95.0" y1="40.49" y2="54.61" /><rect fill="#cc0022" height="23.82" stroke="#cc0022" width="2" x="96.5" y="44.28" /><line stroke="#cc0022" x1="97.5" x2="97.5" y1="42.82" y2="68.91" /><rect fill="#cc0022" height="4.77" stroke="#cc0022" width="2" x="99.0" y="67.92" /><line stroke="#cc0022" x1="100.0" x2="100.0" y1="62.03" y2="81.34" /><rect fill="green" height="7.69" stroke="green" width="2" x="101.5" y="65.0" /><line stroke="green" x1="102.5" x2="102.5" y1="58.43" y2="78.89" /><rect fill="green" height="6.1" stroke="green" width="2" x="104.0" y="58.95" /><line stroke="green" x1="105.0" x2="105.0" y1="56.69" y2="69.67" /><rect fill="green" height="23.84" stroke="green" width="2" x="106.5" y="35.13" /><line stroke="green" x1="107.5" x2="107.5" y1="34.09" y2="58.97" /><rect fill="green" height="6.57" stroke="green" width="2" x="109.0" y="28.58" /><line stroke="green" x1="110.0" x2="110.0" y1="25.61" y2="42.65" /><rect fill="green" height="3.55" stroke="green" width="2" x="111.5" y="25.03" /><line stroke="green" x1="112.5" x2="112.5" y1="21.4" y2="32.11" /><rect fill="#cc0022" height="7.34" stroke="#cc0022" width="2" x="114.0" y="25.03" /><line stroke="#cc0022" x1="115.0" x2="115.0" y1="24.24" y2="41.73" /><rect fill="green" height="10.09" stroke="green" width="2" x="116.5" y="22.31" /><line stroke="green" x1="117.5" x2="117.5" y1="17.67" y2="32.51" /><rect fill="#cc0022" height="14.78" stroke="#cc0022" width="2" x="119.0" y="22.3" /><line stroke="#cc0022" x1="120.0" x2="120.0" y1="15.28" y2="37.43" /><rect fill="#cc0022" height="16.02" stroke="#cc0022" width="2" x="121.5" y="37.05" /><line stroke="#cc0022" x1="122.5" x2="122.5" y1="33.12" y2="56.49" /><rect fill="#cc0022" height="18.85" stroke="#cc0022" width="2" x="124.0" y="53.08" /><line stroke="#cc0022" x1="125.0" x2="125.0" y1="51.51" y2="100.0" /><rect fill="green" height="19.65" stroke="green" width="2" x="126.5" y="52.26" /><line stroke="green" x1="127.5" x2="127.5" y1="44.97" y2="77.67" /><rect fill="#cc0022" height="6.2" stroke="#cc0022" width="2" x="129.0" y="52.25" /><line stroke="#cc0022" x1="130.0" x2="130.0" y1="48.61" y2="65.21" /><rect fill="#cc0022" height="7.29" stroke="#cc0022" width="2" x="131.5" y="58.44" /><line stroke="#cc0022" x1="132.5" x2="132.5" y1="48.98" y2="71.41" /><rect fill="green" height="3.75" stroke="green" width="2" x="134.0" y="61.98" /><line stroke="green" x1="135.0" x2="135.0" y1="54.76" y2="67.56" /><rect fill="green" height="10.94" stroke="green" width="2" x="136.5" y="51.06" /><line stroke="green" x1="137.5" x2="137.5" y1="48.38" y2="64.5" /><rect fill="green" height="12.22" stroke="green" width="2" x="139.0" y="38.86" /><line stroke="green" x1="140.0" x2="140.0" y1="35.74" y2="56.58" /><rect fill="#cc0022" height="18.97" stroke="#cc0022" width="2" x="141.5" y="38.87" /><line stroke="#cc0022" x1="142.5" x2="142.5" y1="35.54" y2="63.48" /><rect fill="#cc0022" height="1.58" stroke="#cc0022" width="2" x="144.0" y="57.83" /><line stroke="#cc0022" x1="145.0" x2="145.0" y1="51.02" y2="64.89" /><rect fill="#cc0022" height="0.6" stroke="#cc0022" width="2" x="146.5" y="59.41" /><line stroke="#cc0022" x1="147.5" x2="147.5" y1="58.13" y2="60.83" /><line stroke="black" stroke-width="1" x1="0.0" x2="147.5" y1="50.59" y2="98.54" /><line stroke="black" stroke-width="1" x1="0.0" x2="147.5" y1="7.53" y2="20.48" /></svg>