<svg baseProfile="full" height="200" version="1.1" width="300" xmlns="http://www.w3.org/2000/svg" xmlns:ev="http://www.w3.org/2001/xml-events" xmlns:xlink="http://www.w3.org/1999/xlink"><defs /><rect width="100%" height="100%" fill="#e0e0e0"/><rect fill="green" height="19.48" stroke="green" width="2" x="-1.0" y="42.64" /><line stroke="green" x1="0.0" x2="0.0" y1="29.78" y2="65.73" /><rect fill="green" height="24.21" stroke="green" width="2" x="4.0" y="18.42" /><line stroke="green" x1="5.0" x2="5.0" y1="7.3" y2="53.23" /><rect fill="#cc0022" height="16.88" stroke="#cc0022" width="2" x="9.0" y="18.42" /><line stroke="#cc0022" x1="10.0" x2="10.0" y1="0.0" y2="65.93" /><rect fill="#cc0022" height="14.97" stroke="#cc0022" width="2" x="14.0" y="35.39" /><line stroke="#cc0022" x1="15.0" x2="15.0" y1="30.08" y2="74.75" /><rect fill="#cc0022" height="16.77" stroke="#cc0022" width="2" x="19.0" y="50.3" /><line stroke="#cc0022" x1="20.0" x2="20.0" y1="45.07" y2="105.1" /><rect fill="green" height="14.16" stroke="green" width="2" x="24.0" y="52.91" /><line stroke="green" x1="25.0" x2="25.0" y1="49.76" y2="92.53" /><rect fill="green" height="18.04" stroke="green" width="2" x="29.0" y="34.88" /><line stroke="green" x1="30.0" x2="30.0" y1="16.42" y2="59.57" /><rect fill="green" height="1.56" stroke="green" width="2" x="34.0" y="33.33" /><line stroke="green" x1="35.0" x2="35.0" y1="17.9" y2="39.42" /><rect fill="#cc0022" height="34.11" stroke="#cc0022" width="2" x="39.0" y="33.31" /><line stroke="#cc0022" x1="40.0" x2="40.0" y1="19.26" y2="74.41" /><rect fill="green" height="19.42" stroke="green" width="2" x="44.0" y="48.01" /><line stroke="green" x1="45.0" x2="45.0" y1="36.21" y2="74.63" /><rect fill="green" height="30.78" stroke="green" width="2" x="49.0" y="17.21" /><line stroke="green" x1="50.0" x2="50.0" y1="8.4" y2="50.82" /><rect fill="#cc0022" height="12.76" stroke="#cc0022" width="2" x="54.0" y="17.2" /><line stroke="#cc0022" x1="55.0" x2="55.0" y1="16.3" y2="50.73" /><rect fill="#cc0022" height="35.1" stroke="#cc0022" width="2" x="59.0" y="29.95" /><line stroke="#cc0022" x1="60.0" x2="60.0" y1="20.52" y2="104.19" /><rect fill="#cc0022" height="36.24" stroke="#cc0022" width="2" x="64.0" y="65.05" /><line stroke="#cc0022" x1="65.0" x2="65.0" y1="55.8" y2="113.54" /><rect fill="green" height="30.2" stroke="green" width="2" x="69.0" y="71.1" /><line stroke="green" x1="70.0" x2="70.0" y1="67.14" y2="114.49" /><rect fill="green" height="11.49" stroke="green" width="2" x="74.0" y="59.63" /><line stroke="green" x1="75.0" x2="75.0" y1="52.91" y2="76.92" /><rect fill="#cc0022" height="21.55" stroke="#cc0022" width="2" x="79.0" y="59.62" /><line stroke="#cc0022" x1="80.0" x2="80.0" y1="54.2" y2="89.05" /><rect fill="green" height="0.73" stroke="green" width="2" x="84.0" y="80.47" /><line stroke="green" x1="85.0" x2="85.0" y1="76.57" y2="97.08" /><rect fill="#cc0022" height="38.3" stroke="#cc0022" width="2" x="89.0" y="80.48" /><line stroke="#cc0022" x1="90.0" x2="90.0" y1="73.46" y2="139.63" /><rect fill="green" height="39.86" stroke="green" width="2" x="94.0" y="78.92" /><line stroke="green" x1="95.0" x2="95.0" y1="74.22" y2="121.01" /><rect fill="#cc0022" height="23.15" stroke="#cc0022" width="2" x="99.0" y="78.86" /><line stroke="#cc0022" x1="100.0" x2="100.0" y1="67.04" y2="104.54" /><rect fill="#cc0022" height="3.23" stroke="#cc0022" width="2" x="104.0" y="101.99" /><line stroke="#cc0022" x1="105.0" x2="105.0" y1="83.67" y2="109.96" /><rect fill="green" height="6.17" stroke="green" width="2" x="109.0" y="99.05" /><line stroke="green" x1="110.0" x2="110.0" y1="83.86" y2="106.52" /><rect fill="green" height="44.65" stroke="green" width="2" x="114.0" y="54.39" /><line stroke="green" x1="115.0" x2="115.0" y1="51.08" y2="100.85" /><rect fill="green" height="35.58" stroke="green" width="2" x="119.0" y="18.69" /><line stroke="green" x1="120.0" x2="120.0" y1="18.41" y2="63.45" /><rect fill="#cc0022" height="28.53" stroke="#cc0022" width="2" x="124.0" y="18.73" /><line stroke="#cc0022" x1="125.0" x2="125.0" y1="14.65" y2="60.04" /><rect fill="green" height="4.79" stroke="green" width="2" x="129.0" y="42.49" /><line stroke="green" x1="130.0" x2="130.0" y1="33.87" y2="57.88" /><rect fill="#cc0022" height="7.59" stroke="#cc0022" width="2" x="134.0" y="42.53" /><line stroke="#cc0022" x1="135.0" x2="135.0" y1="25.6" y2="53.99" /><rect fill="green" height="1.06" stroke="green" width="2" x="139.0" y="49.07" /><line stroke="green" x1="140.0" x2="140.0" y1="34.51" y2="57.79" /><rect fill="green" height="23.2" stroke="green" width="2" x="144.0" y="25.84" /><line stroke="green" x1="145.0" x2="145.0" y1="21.95" y2="52.25" /><rect fill="#cc0022" height="9.95" stroke="#cc0022" width="2" x="149.0" y="25.84" /><line stroke="#cc0022" x1="150.0" x2="150.0" y1="14.96" y2="42.57" /><rect fill="green" height="1.53" stroke="green" width="2" x="154.0" y="34.41" /><line stroke="green" x1="155.0" x2="155.0" y1="29.27" y2="37.27" /><rect fill="#cc0022" height="22.35" stroke="#cc0022" width="2" x="159.0" y="34.45" /><line stroke="#cc0022" x1="160.0" x2="160.0" y1="30.63" y2="61.93" /><rect fill="#cc0022" height="0.88" stroke="#cc0022" width="2" x="164.0" y="56.86" /><line stroke="#cc0022" x1="165.0" x2="165.0" y1="52.42" y2="70.59" /><rect fill="#cc0022" height="13.61" stroke="#cc0022" width="2" x="169.0" y="57.77" /><line stroke="#cc0022" x1="170.0" x2="170.0" y1="53.29" y2="78.63" /><rect fill="#cc0022" height="5.75" stroke="#cc0022" width="2" x="174.0" y="71.38" /><line stroke="#cc0022" x1="175.0" x2="175.0" y1="59.37" y2="84.22" /><rect fill="#cc0022" height="19.85" stroke="#cc0022" width="2" x="179.0" y="77.15" /><line stroke="#cc0022" x1="180.0" x2="180.0" y1="75.18" y2="123.01" /><rect fill="#cc0022" height="11.93" stroke="#cc0022" width="2" x="184.0" y="97.13" /><line stroke="#cc0022" x1="185.0" x2="185.0" y1="91.89" y2="111.78" /><rect fill="green" height="20.56" stroke="green" width="2" x="189.0" y="88.5" /><line stroke="green" x1="190.0" x2="190.0" y1="80.99" y2="109.21" /><rect fill="#cc0022" height="47.64" stroke="#cc0022" width="2" x="194.0" y="88.56" /><line stroke="#cc0022" x1="195.0" x2="195.0" y1="85.65" y2="137.82" /><rect fill="#cc0022" height="9.53" stroke="#cc0022" width="2" x="199.0" y="135.83" /><line stroke="#cc0022" x1="200.0" x2="200.0" y1="124.06" y2="162.68" /><rect fill="green" height="15.37" stroke="green" width="2" x="204.0" y="129.99" /><line stroke="green" x1="205.0" x2="205.0" y1="116.86" y2="157.77" /><rect fill="green" height="12.2" stroke="green" width="2" x="209.0" y="117.9" /><line stroke="green" x1="210.0" x2="210.0" y1="113.39" y2="139.35" /><rect fill="green" height="47.68" stroke="green" width="2" x="214.0" y="70.27" /><line stroke="green" x1="215.0" x2="215.0" y1="68.18" y2="117.95" /><rect fill="green" height="13.14" stroke="green" width="2" x="219.0" y="57.17" /><line stroke="green" x1="220.0" x2="220.0" y1="51.22" y2="85.3" /><rect fill="green" height="7.11" stroke="green" width="2" x="224.0" y="50.06" /><line stroke="green" x1="225.0" x2="225.0" y1="42.8" y2="64.22" /><rect fill="#cc0022" height="14.68" stroke="#cc0022" width="2" x="229.0" y="50.07" /><line stroke="#cc0022" x1="230.0" x2="230.0" y1="48.49" y2="83.45" /><rect fill="green" height="20.17" stroke="green" width="2" x="234.0" y="44.62" /><line stroke="green" x1="235.0" x2="235.0" y1="35.34" y2="65.02" /><rect fill="#cc0022" height="29.56" stroke="#cc0022" width="2" x="239.0" y="44.59" /><line stroke="#cc0022" x1="240.0" x2="240.0" y1="30.55" y2="74.86" /><rect fill="#cc0022" height="32.04" stroke="#cc0022" width="2" x="244.0" y="74.09" /><line stroke="#cc0022" x1="245.0" x2="245.0" y1="66.24" y2="112.99" /><rect fill="#cc0022" height="37.69" stroke="#cc0022" width="2" x="249.0" y="106.17" /><line stroke="#cc0022" x1="250.0" x2="250.0" y1="103.03" y2="200.0" /><rect fill="green" height="39.3" stroke="green" width="2" x="254.0" y="104.51" /><line stroke="green" x1="255.0" x2="255.0" y1="89.95" y2="155.34" /><rect fill="#cc0022" height="12.4" stroke="#cc0022" width="2" x="259.0" y="104.5" /><line stroke="#cc0022" x1="260.0" x2="260.0" y1="97.21" y2="130.43" /><rect fill="#cc0022" height="14.59" stroke="#cc0022" width="2" x="264.0" y="116.89" /><line stroke="#cc0022" x1="265.0" x2="265.0" y1="97.95" y2="142.83" /><rect fill="green" height="7.5" stroke="green" width="2" x="269.0" y="123.97" /><line stroke="green" x1="270.0" x2="270.0" y1="109.52" y2="135.13" /><rect fill="green" height="21.88" stroke="green" width="2" x="274.0" y="102.12" /><line stroke="green" x1="275.0" x2="275.0" y1="96.76" y2="129.0" /><rect fill="green" height="24.45" stroke="green" width="2" x="279.0" y="77.72" /><line stroke="green" x1="280.0" x2="280.0" y1="71.49" y2="113.16" /><rect fill="#cc0022" height="37.94" stroke="#cc0022" width="2" x="284.0" y="77.74" /><line stroke="#cc0022" x1="285.0" x2="285.0" y1="71.08" y2="126.95" /><rect fill="#cc0022" height="3.15" stroke="#cc0022" width="2" x="289.0" y="115.65" /><line stroke="#cc0022" x1="290.0" x2="290.0" y1="102.04" y2="129.78" /><rect fill="#cc0022" height="1.2" stroke="#cc0022" width="2" x="294.0" y="118.82" /><line stroke="#cc0022" x1="295.0" x2="295.0" y1="116.27" y2="121.66" /><line stroke="black" stroke-width="1" x1="0.0" x2="295.0" y1="101.18" y2="197.08" /><line stroke="black" stroke-width="1" x1="0.0" x2="295.0" y1="15.06" y2="40.96" /></svg>