<svg baseProfile="full" height="150" version="1.1" width="225" xmlns="http://www.w3.org/2000/svg" xmlns:ev="http://www.w3.org/2001/xml-events" xmlns:xlink="http://www.w3.org/1999/xlink"><defs /><rect width="100%" height="100%" fill="#e0e0e0"/><rect fill="green" height="14.61" stroke="green" width="2" x="-1.0" y="31.98" /><line stroke="green" x1="0.0" x2="0.0" y1="22.33" y2="49.3" /><rect fill="green" height="18.16" stroke="green" width="2" x="2.75" y="13.82" /><line stroke="green" x1="3.75" x2="3.75" y1="5.48" y2="39.92" /><rect fill="#cc0022" height="12.66" stroke="#cc0022" width="2" x="6.5" y="13.81" /><line stroke="#cc0022" x1="7.5" x2="7.5" y1="0.0" y2="49.45" /><rect fill="#cc0022" height="11.23" stroke="#cc0022" width="2" x="10.25" y="26.54" /><line stroke="#cc0022" x1="11.25" x2="11.25" y1="22.56" y2="56.06" /><rect fill="#cc0022" height="12.58" stroke="#cc0022" width="2" x="14.0" y="37.72" /><line stroke="#cc0022" x1="15.0" x2="15.0" y1="33.8" y2="78.82" /><rect fill="green" height="10.62" stroke="green" width="2" x="17.75" y="39.68" /><line stroke="green" x1="18.75" x2="18.75" y1="37.32" y2="69.4" /><rect fill="green" height="13.53" stroke="green" width="2" x="21.5" y="26.16" /><line stroke="green" x1="22.5" x2="22.5" y1="12.32" y2="44.67" /><rect fill="green" height="1.17" stroke="green" width="2" x="25.25" y="25.0" /><line stroke="green" x1="26.25" x2="26.25" y1="13.42" y2="29.57" /><rect fill="#cc0022" height="25.58" stroke="#cc0022" width="2" x="29.0" y="24.98" /><line stroke="#cc0022" x1="30.0" x2="30.0" y1="14.45" y2="55.81" /><rect fill="green" height="14.56" stroke="green" width="2" x="32.75" y="36.01" /><line stroke="green" x1="33.75" x2="33.75" y1="27.16" y2="55.97" /><rect fill="green" height="23.09" stroke="green" width="2" x="36.5" y="12.9" /><line stroke="green" x1="37.5" x2="37.5" y1="6.3" y2="38.12" /><rect fill="#cc0022" height="9.57" stroke="#cc0022" width="2" x="40.25" y="12.9" /><line stroke="#cc0022" x1="41.25" x2="41.25" y1="12.23" y2="38.04" /><rect fill="#cc0022" height="26.33" stroke="#cc0022" width="2" x="44.0" y="22.47" /><line stroke="#cc0022" x1="45.0" x2="45.0" y1="15.39" y2="78.15" /><rect fill="#cc0022" height="27.18" stroke="#cc0022" width="2" x="47.75" y="48.79" /><line stroke="#cc0022" x1="48.75" x2="48.75" y1="41.85" y2="85.15" /><rect fill="green" height="22.65" stroke="green" width="2" x="51.5" y="53.33" /><line stroke="green" x1="52.5" x2="52.5" y1="50.36" y2="85.87" /><rect fill="green" height="8.61" stroke="green" width="2" x="55.25" y="44.72" /><line stroke="green" x1="56.25" x2="56.25" y1="39.69" y2="57.69" /><rect fill="#cc0022" height="16.16" stroke="#cc0022" width="2" x="59.0" y="44.71" /><line stroke="#cc0022" x1="60.0" x2="60.0" y1="40.65" y2="66.79" /><rect fill="green" height="0.55" stroke="green" width="2" x="62.75" y="60.35" /><line stroke="green" x1="63.75" x2="63.75" y1="57.42" y2="72.81" /><rect fill="#cc0022" height="28.72" stroke="#cc0022" width="2" x="66.5" y="60.36" /><line stroke="#cc0022" x1="67.5" x2="67.5" y1="55.1" y2="104.72" /><rect fill="green" height="29.9" stroke="green" width="2" x="70.25" y="59.19" /><line stroke="green" x1="71.25" x2="71.25" y1="55.66" y2="90.76" /><rect fill="#cc0022" height="17.36" stroke="#cc0022" width="2" x="74.0" y="59.15" /><line stroke="#cc0022" x1="75.0" x2="75.0" y1="50.28" y2="78.4" /><rect fill="#cc0022" height="2.42" stroke="#cc0022" width="2" x="77.75" y="76.49" /><line stroke="#cc0022" x1="78.75" x2="78.75" y1="62.75" y2="82.47" /><rect fill="green" height="4.62" stroke="green" width="2" x="81.5" y="74.29" /><line stroke="green" x1="82.5" x2="82.5" y1="62.9" y2="79.89" /><rect fill="green" height="33.48" stroke="green" width="2" x="85.25" y="40.79" /><line stroke="green" x1="86.25" x2="86.25" y1="38.31" y2="75.64" /><rect fill="green" height="26.69" stroke="green" width="2" x="89.0" y="14.02" /><line stroke="green" x1="90.0" x2="90.0" y1="13.8" y2="47.58" /><rect fill="#cc0022" height="21.4" stroke="#cc0022" width="2" x="92.75" y="14.05" /><line stroke="#cc0022" x1="93.75" x2="93.75" y1="10.98" y2="45.03" /><rect fill="green" height="3.59" stroke="green" width="2" x="96.5" y="31.86" /><line stroke="green" x1="97.5" x2="97.5" y1="25.4" y2="43.41" /><rect fill="#cc0022" height="5.69" stroke="#cc0022" width="2" x="100.25" y="31.9" /><line stroke="#cc0022" x1="101.25" x2="101.25" y1="19.2" y2="40.49" /><rect fill="green" height="0.8" stroke="green" width="2" x="104.0" y="36.81" /><line stroke="green" x1="105.0" x2="105.0" y1="25.88" y2="43.34" /><rect fill="green" height="17.4" stroke="green" width="2" x="107.75" y="19.38" /><line stroke="green" x1="108.75" x2="108.75" y1="16.46" y2="39.19" /><rect fill="#cc0022" height="7.47" stroke="#cc0022" width="2" x="111.5" y="19.38" /><line stroke="#cc0022" x1="112.5" x2="112.5" y1="11.22" y2="31.93" /><rect fill="green" height="1.15" stroke="green" width="2" x="115.25" y="25.81" /><line stroke="green" x1="116.25" x2="116.25" y1="21.95" y2="27.95" /><rect fill="#cc0022" height="16.76" stroke="#cc0022" width="2" x="119.0" y="25.84" /><line stroke="#cc0022" x1="120.0" x2="120.0" y1="22.97" y2="46.45" /><rect fill="#cc0022" height="0.66" stroke="#cc0022" width="2" x="122.75" y="42.65" /><line stroke="#cc0022" x1="123.75" x2="123.75" y1="39.32" y2="52.95" /><rect fill="#cc0022" height="10.21" stroke="#cc0022" width="2" x="126.5" y="43.32" /><line stroke="#cc0022" x1="127.5" x2="127.5" y1="39.96" y2="58.97" /><rect fill="#cc0022" height="4.31" stroke="#cc0022" width="2" x="130.25" y="53.53" /><line stroke="#cc0022" x1="131.25" x2="131.25" y1="44.53" y2="63.16" /><rect fill="#cc0022" height="14.89" stroke="#cc0022" width="2" x="134.0" y="57.87" /><line stroke="#cc0022" x1="135.0" x2="135.0" y1="56.39" y2="92.26" /><rect fill="#cc0022" height="8.95" stroke="#cc0022" width="2" x="137.75" y="72.84" /><line stroke="#cc0022" x1="138.75" x2="138.75" y1="68.92" y2="83.83" /><rect fill="green" height="15.42" stroke="green" width="2" x="141.5" y="66.37" /><line stroke="green" x1="142.5" x2="142.5" y1="60.74" y2="81.91" /><rect fill="#cc0022" height="35.73" stroke="#cc0022" width="2" x="145.25" y="66.42" /><line stroke="#cc0022" x1="146.25" x2="146.25" y1="64.23" y2="103.37" /><rect fill="#cc0022" height="7.15" stroke="#cc0022" width="2" x="149.0" y="101.88" /><line stroke="#cc0022" x1="150.0" x2="150.0" y1="93.05" y2="122.01" /><rect fill="green" height="11.53" stroke="green" width="2" x="152.75" y="97.49" /><line stroke="green" x1="153.75" x2="153.75" y1="87.65" y2="118.33" /><rect fill="green" height="9.15" stroke="green" width="2" x="156.5" y="88.42" /><line stroke="green" x1="157.5" x2="157.5" y1="85.04" y2="104.51" /><rect fill="green" height="35.76" stroke="green" width="2" x="160.25" y="52.7" /><line stroke="green" x1="161.25" x2="161.25" y1="51.13" y2="88.46" /><rect fill="green" height="9.86" stroke="green" width="2" x="164.0" y="42.88" /><line stroke="green" x1="165.0" x2="165.0" y1="38.41" y2="63.97" /><rect fill="green" height="5.33" stroke="green" width="2" x="167.75" y="37.55" /><line stroke="green" x1="168.75" x2="168.75" y1="32.1" y2="48.16" /><rect fill="#cc0022" height="11.01" stroke="#cc0022" width="2" x="171.5" y="37.55" /><line stroke="#cc0022" x1="172.5" x2="172.5" y1="36.37" y2="62.59" /><rect fill="green" height="15.13" stroke="green" width="2" x="175.25" y="33.46" /><line stroke="green" x1="176.25" x2="176.25" y1="26.5" y2="48.76" /><rect fill="#cc0022" height="22.17" stroke="#cc0022" width="2" x="179.0" y="33.44" /><line stroke="#cc0022" x1="180.0" x2="180.0" y1="22.92" y2="56.14" /><rect fill="#cc0022" height="24.03" stroke="#cc0022" width="2" x="182.75" y="55.57" /><line stroke="#cc0022" x1="183.75" x2="183.75" y1="49.68" y2="84.74" /><rect fill="#cc0022" height="28.27" stroke="#cc0022" width="2" x="186.5" y="79.63" /><line stroke="#cc0022" x1="187.5" x2="187.5" y1="77.27" y2="150.0" /><rect fill="green" height="29.47" stroke="green" width="2" x="190.25" y="78.38" /><line stroke="green" x1="191.25" x2="191.25" y1="67.46" y2="116.51" /><rect fill="#cc0022" height="9.3" stroke="#cc0022" width="2" x="194.0" y="78.38" /><line stroke="#cc0022" x1="195.0" x2="195.0" y1="72.91" y2="97.82" /><rect fill="#cc0022" height="10.94" stroke="#cc0022" width="2" x="197.75" y="87.66" /><line stroke="#cc0022" x1="198.75" x2="198.75" y1="73.46" y2="107.12" /><rect fill="green" height="5.63" stroke="green" width="2" x="201.5" y="92.98" /><line stroke="green" x1="202.5" x2="202.5" y1="82.14" y2="101.34" /><rect fill="green" height="16.41" stroke="green" width="2" x="205.25" y="76.59" /><line stroke="green" x1="206.25" x2="206.25" y1="72.57" y2="96.75" /><rect fill="green" height="18.34" stroke="green" width="2" x="209.0" y="58.29" /><line stroke="green" x1="210.0" x2="210.0" y1="53.61" y2="84.87" /><rect fill="#cc0022" height="28.46" stroke="#cc0022" width="2" x="212.75" y="58.31" /><line stroke="#cc0022" x1="213.75" x2="213.75" y1="53.31" y2="95.21" /><rect fill="#cc0022" height="2.37" stroke="#cc0022" width="2" x="216.5" y="86.74" /><line stroke="#cc0022" x1="217.5" x2="217.5" y1="76.53" y2="97.33" /><rect fill="#cc0022" height="0.9" stroke="#cc0022" width="2" x="220.25" y="89.12" /><line stroke="#cc0022" x1="221.25" x2="221.25" y1="87.2" y2="91.24" /><line stroke="black" stroke-width="1" x1="0.0" x2="221.25" y1="75.89" y2="147.81" /><line stroke="black" stroke-width="1" x1="0.0" x2="221.25" y1="11.3" y2="30.72" /></svg>