<svg baseProfile="full" height="200" version="1.1" width="300" xmlns="http://www.w3.org/2000/svg" xmlns:ev="http://www.w3.org/2001/xml-events" xmlns:xlink="http://www.w3.org/1999/xlink"><defs /><rect width="100%" height="100%" fill="#e0e0e0"/><line stroke="black" x1="0.0" x2="5.0" y1="39.7" y2="1.9" /><line stroke="black" x1="5.0" x2="10.0" y1="1.9" y2="28.23" /><line stroke="black" x1="10.0" x2="15.0" y1="28.23" y2="51.74" /><line stroke="black" x1="15.0" x2="20.0" y1="51.74" y2="77.81" /><line stroke="black" x1="20.0" x2="25.0" y1="77.81" y2="55.72" /><line stroke="black" x1="25.0" x2="30.0" y1="55.72" y2="27.58" /><line stroke="black" x1="30.0" x2="35.0" y1="27.58" y2="25.17" /><line stroke="black" x1="35.0" x2="40.0" y1="25.17" y2="78.37" /><line stroke="black" x1="40.0" x2="45.0" y1="78.37" y2="48.08" /><line stroke="black" x1="45.0" x2="50.0" y1="48.08" y2="0.0" /><line stroke="black" x1="50.0" x2="55.0" y1="0.0" y2="19.91" /><line stroke="black" x1="55.0" x2="60.0" y1="19.91" y2="74.67" /><line stroke="black" x1="60.0" x2="65.0" y1="74.67" y2="131.22" /><line stroke="black" x1="65.0" x2="70.0" y1="131.22" y2="84.11" /><line stroke="black" x1="70.0" x2="75.0" y1="84.11" y2="66.2" /><line stroke="black" x1="75.0" x2="80.0" y1="66.2" y2="99.81" /><line stroke="black" x1="80.0" x2="85.0" y1="99.81" y2="98.72" /><line stroke="black" x1="85.0" x2="90.0" y1="98.72" y2="158.51" /><line stroke="black" x1="90.0" x2="95.0" y1="158.51" y2="96.31" /><line stroke="black" x1="95.0" x2="100.0" y1="96.31" y2="132.34" /><line stroke="black" x1="100.0" x2="105.0" y1="132.34" y2="137.34" /><line stroke="black" x1="105.0" x2="110.0" y1="137.34" y2="127.72" /><line stroke="black" x1="110.0" x2="115.0" y1="127.72" y2="58.03" /><line stroke="black" x1="115.0" x2="120.0" y1="58.03" y2="2.32" /><line stroke="black" x1="120.0" x2="125.0" y1="2.32" y2="46.91" /><line stroke="black" x1="125.0" x2="130.0" y1="46.91" y2="39.45" /><line stroke="black" x1="130.0" x2="135.0" y1="39.45" y2="51.36" /><line stroke="black" x1="135.0" x2="140.0" y1="51.36" y2="49.73" /><line stroke="black" x1="140.0" x2="145.0" y1="49.73" y2="13.48" /><line stroke="black" x1="145.0" x2="150.0" y1="13.48" y2="29.0" /><line stroke="black" x1="150.0" x2="155.0" y1="29.0" y2="26.85" /><line stroke="black" x1="155.0" x2="160.0" y1="26.85" y2="61.78" /><line stroke="black" x1="160.0" x2="165.0" y1="61.78" y2="63.26" /><line stroke="black" x1="165.0" x2="170.0" y1="63.26" y2="84.54" /><line stroke="black" x1="170.0" x2="175.0" y1="84.54" y2="93.51" /><line stroke="black" x1="175.0" x2="180.0" y1="93.51" y2="124.53" /><line stroke="black" x1="180.0" x2="185.0" y1="124.53" y2="143.34" /><line stroke="black" x1="185.0" x2="190.0" y1="143.34" y2="111.26" /><line stroke="black" x1="190.0" x2="195.0" y1="111.26" y2="185.7" /><line stroke="black" x1="195.0" x2="200.0" y1="185.7" y2="200.0" /><line stroke="black" x1="200.0" x2="205.0" y1="200.0" y2="176.01" /><line stroke="black" x1="205.0" x2="210.0" y1="176.01" y2="157.13" /><line stroke="black" x1="210.0" x2="215.0" y1="157.13" y2="82.8" /><line stroke="black" x1="215.0" x2="220.0" y1="82.8" y2="62.36" /><line stroke="black" x1="220.0" x2="225.0" y1="62.36" y2="51.27" /><line stroke="black" x1="225.0" x2="230.0" y1="51.27" y2="74.19" /><line stroke="black" x1="230.0" x2="235.0" y1="74.19" y2="42.78" /><line stroke="black" x1="235.0" x2="240.0" y1="42.78" y2="88.86" /><line stroke="black" x1="240.0" x2="245.0" y1="88.86" y2="138.78" /><line stroke="black" x1="245.0" x2="250.0" y1="138.78" y2="197.65" /><line stroke="black" x1="250.0" x2="255.0" y1="197.65" y2="136.24" /><line stroke="black" x1="255.0" x2="260.0" y1="136.24" y2="155.58" /><line stroke="black" x1="260.0" x2="265.0" y1="155.58" y2="178.32" /><line stroke="black" x1="265.0" x2="270.0" y1="178.32" y2="166.61" /><line stroke="black" x1="270.0" x2="275.0" y1="166.61" y2="132.51" /><line stroke="black" x1="275.0" x2="280.0" y1="132.51" y2="94.44" /><line stroke="black" x1="280.0" x2="285.0" y1="94.44" y2="153.68" /><line stroke="black" x1="285.0" x2="290.0" y1="153.68" y2="158.56" /><line stroke="black" x1="290.0" x2="295.0" y1="158.56" y2="160.45" /></svg>