<svg baseProfile="full" height="100" version="1.1" width="150" xmlns="http://www.w3.org/2000/svg" xmlns:ev="http://www.w3.org/2001/xml-events" xmlns:xlink="http://www.w3.org/1999/xlink"><defs /><rect width="100%" height="100%" fill="#e0e0e0"/><line stroke="black" x1="0.0" x2="2.5" y1="19.85" y2="0.95" /><line stroke="black" x1="2.5" x2="5.0" y1="0.95" y2="14.11" /><line stroke="black" x1="5.0" x2="7.5" y1="14.11" y2="25.87" /><line stroke="black" x1="7.5" x2="10.0" y1="25.87" y2="38.9" /><line stroke="black" x1="10.0" x2="12.5" y1="38.9" y2="27.86" /><line stroke="black" x1="12.5" x2="15.0" y1="27.86" y2="13.79" /><line stroke="black" x1="15.0" x2="17.5" y1="13.79" y2="12.58" /><line stroke="black" x1="17.5" x2="20.0" y1="12.58" y2="39.19" /><line stroke="black" x1="20.0" x2="22.5" y1="39.19" y2="24.04" /><line stroke="black" x1="22.5" x2="25.0" y1="24.04" y2="0.0" /><line stroke="black" x1="25.0" x2="27.5" y1="0.0" y2="9.95" /><line stroke="black" x1="27.5" x2="30.0" y1="9.95" y2="37.34" /><line stroke="black" x1="30.0" x2="32.5" y1="37.34" y2="65.61" /><line stroke="black" x1="32.5" x2="35.0" y1="65.61" y2="42.05" /><line stroke="black" x1="35.0" x2="37.5" y1="42.05" y2="33.1" /><line stroke="black" x1="37.5" x2="40.0" y1="33.1" y2="49.9" /><line stroke="black" x1="40.0" x2="42.5" y1="49.9" y2="49.36" /><line stroke="black" x1="42.5" x2="45.0" y1="49.36" y2="79.25" /><line stroke="black" x1="45.0" x2="47.5" y1="79.25" y2="48.16" /><line stroke="black" x1="47.5" x2="50.0" y1="48.16" y2="66.17" /><line stroke="black" x1="50.0" x2="52.5" y1="66.17" y2="68.67" /><line stroke="black" x1="52.5" x2="55.0" y1="68.67" y2="63.86" /><line stroke="black" x1="55.0" x2="57.5" y1="63.86" y2="29.02" /><line stroke="black" x1="57.5" x2="60.0" y1="29.02" y2="1.16" /><line stroke="black" x1="60.0" x2="62.5" y1="1.16" y2="23.46" /><line stroke="black" x1="62.5" x2="65.0" y1="23.46" y2="19.73" /><line stroke="black" x1="65.0" x2="67.5" y1="19.73" y2="25.68" /><line stroke="black" x1="67.5" x2="70.0" y1="25.68" y2="24.87" /><line stroke="black" x1="70.0" x2="72.5" y1="24.87" y2="6.74" /><line stroke="black" x1="72.5" x2="75.0" y1="6.74" y2="14.5" /><line stroke="black" x1="75.0" x2="77.5" y1="14.5" y2="13.43" /><line stroke="black" x1="77.5" x2="80.0" y1="13.43" y2="30.89" /><line stroke="black" x1="80.0" x2="82.5" y1="30.89" y2="31.63" /><line stroke="black" x1="82.5" x2="85.0" y1="31.63" y2="42.27" /><line stroke="black" x1="85.0" x2="87.5" y1="42.27" y2="46.75" /><line stroke="black" x1="87.5" x2="90.0" y1="46.75" y2="62.26" /><line stroke="black" x1="90.0" x2="92.5" y1="62.26" y2="71.67" /><line stroke="black" x1="92.5" x2="95.0" y1="71.67" y2="55.63" /><line stroke="black" x1="95.0" x2="97.5" y1="55.63" y2="92.85" /><line stroke="black" x1="97.5" x2="100.0" y1="92.85" y2="100.0" /><line stroke="black" x1="100.0" x2="102.5" y1="100.0" y2="88.0" /><line stroke="black" x1="102.5" x2="105.0" y1="88.0" y2="78.57" /><line stroke="black" x1="105.0" x2="107.5" y1="78.57" y2="41.4" /><line stroke="black" x1="107.5" x2="110.0" y1="41.4" y2="31.18" /><line stroke="black" x1="110.0" x2="112.5" y1="31.18" y2="25.64" /><line stroke="black" x1="112.5" x2="115.0" y1="25.64" y2="37.09" /><line stroke="black" x1="115.0" x2="117.5" y1="37.09" y2="21.39" /><line stroke="black" x1="117.5" x2="120.0" y1="21.39" y2="44.43" /><line stroke="black" x1="120.0" x2="122.5" y1="44.43" y2="69.39" /><line stroke="black" x1="122.5" x2="125.0" y1="69.39" y2="98.83" /><line stroke="black" x1="125.0" x2="127.5" y1="98.83" y2="68.12" /><line stroke="black" x1="127.5" x2="130.0" y1="68.12" y2="77.79" /><line stroke="black" x1="130.0" x2="132.5" y1="77.79" y2="89.16" /><line stroke="black" x1="132.5" x2="135.0" y1="89.16" y2="83.3" /><line stroke="black" x1="135.0" x2="137.5" y1="83.3" y2="66.25" /><line stroke="black" x1="137.5" x2="140.0" y1="66.25" y2="47.22" /><line stroke="black" x1="140.0" x2="142.5" y1="47.22" y2="76.84" /><line stroke="black" x1="142.5" x2="145.0" y1="76.84" y2="79.28" /><line stroke="black" x1="145.0" x2="147.5" y1="79.28" y2="80.23" /></svg>