<svg baseProfile="full" height="150" version="1.1" width="225" xmlns="http://www.w3.org/2000/svg" xmlns:ev="http://www.w3.org/2001/xml-events" xmlns:xlink="http://www.w3.org/1999/xlink"><defs /><rect width="100%" height="100%" fill="#e0e0e0"/><line stroke="black" x1="0.0" x2="3.75" y1="29.77" y2="1.43" /><line stroke="black" x1="3.75" x2="7.5" y1="1.43" y2="21.17" /><line stroke="black" x1="7.5" x2="11.25" y1="21.17" y2="38.8" /><line stroke="black" x1="11.25" x2="15.0" y1="38.8" y2="58.36" /><line stroke="black" x1="15.0" x2="18.75" y1="58.36" y2="41.79" /><line stroke="black" x1="18.75" x2="22.5" y1="41.79" y2="20.68" /><line stroke="black" x1="22.5" x2="26.25" y1="20.68" y2="18.88" /><line stroke="black" x1="26.25" x2="30.0" y1="18.88" y2="58.78" /><line stroke="black" x1="30.0" x2="33.75" y1="58.78" y2="36.06" /><line stroke="black" x1="33.75" x2="37.5" y1="36.06" y2="0.0" /><line stroke="black" x1="37.5" x2="41.25" y1="0.0" y2="14.93" /><line stroke="black" x1="41.25" x2="45.0" y1="14.93" y2="56.01" /><line stroke="black" x1="45.0" x2="48.75" y1="56.01" y2="98.41" /><line stroke="black" x1="48.75" x2="52.5" y1="98.41" y2="63.08" /><line stroke="black" x1="52.5" x2="56.25" y1="63.08" y2="49.65" /><line stroke="black" x1="56.25" x2="60.0" y1="49.65" y2="74.86" /><line stroke="black" x1="60.0" x2="63.75" y1="74.86" y2="74.04" /><line stroke="black" x1="63.75" x2="67.5" y1="74.04" y2="118.88" /><line stroke="black" x1="67.5" x2="71.25" y1="118.88" y2="72.24" /><line stroke="black" x1="71.25" x2="75.0" y1="72.24" y2="99.26" /><line stroke="black" x1="75.0" x2="78.75" y1="99.26" y2="103.0" /><line stroke="black" x1="78.75" x2="82.5" y1="103.0" y2="95.79" /><line stroke="black" x1="82.5" x2="86.25" y1="95.79" y2="43.53" /><line stroke="black" x1="86.25" x2="90.0" y1="43.53" y2="1.74" /><line stroke="black" x1="90.0" x2="93.75" y1="1.74" y2="35.18" /><line stroke="black" x1="93.75" x2="97.5" y1="35.18" y2="29.59" /><line stroke="black" x1="97.5" x2="101.25" y1="29.59" y2="38.52" /><line stroke="black" x1="101.25" x2="105.0" y1="38.52" y2="37.3" /><line stroke="black" x1="105.0" x2="108.75" y1="37.3" y2="10.11" /><line stroke="black" x1="108.75" x2="112.5" y1="10.11" y2="21.75" /><line stroke="black" x1="112.5" x2="116.25" y1="21.75" y2="20.14" /><line stroke="black" x1="116.25" x2="120.0" y1="20.14" y2="46.33" /><line stroke="black" x1="120.0" x2="123.75" y1="46.33" y2="47.45" /><line stroke="black" x1="123.75" x2="127.5" y1="47.45" y2="63.4" /><line stroke="black" x1="127.5" x2="131.25" y1="63.4" y2="70.13" /><line stroke="black" x1="131.25" x2="135.0" y1="70.13" y2="93.4" /><line stroke="black" x1="135.0" x2="138.75" y1="93.4" y2="107.51" /><line stroke="black" x1="138.75" x2="142.5" y1="107.51" y2="83.44" /><line stroke="black" x1="142.5" x2="146.25" y1="83.44" y2="139.27" /><line stroke="black" x1="146.25" x2="150.0" y1="139.27" y2="150.0" /><line stroke="black" x1="150.0" x2="153.75" y1="150.0" y2="132.0" /><line stroke="black" x1="153.75" x2="157.5" y1="132.0" y2="117.85" /><line stroke="black" x1="157.5" x2="161.25" y1="117.85" y2="62.1" /><line stroke="black" x1="161.25" x2="165.0" y1="62.1" y2="46.77" /><line stroke="black" x1="165.0" x2="168.75" y1="46.77" y2="38.46" /><line stroke="black" x1="168.75" x2="172.5" y1="38.46" y2="55.64" /><line stroke="black" x1="172.5" x2="176.25" y1="55.64" y2="32.08" /><line stroke="black" x1="176.25" x2="180.0" y1="32.08" y2="66.65" /><line stroke="black" x1="180.0" x2="183.75" y1="66.65" y2="104.08" /><line stroke="black" x1="183.75" x2="187.5" y1="104.08" y2="148.24" /><line stroke="black" x1="187.5" x2="191.25" y1="148.24" y2="102.18" /><line stroke="black" x1="191.25" x2="195.0" y1="102.18" y2="116.68" /><line stroke="black" x1="195.0" x2="198.75" y1="116.68" y2="133.74" /><line stroke="black" x1="198.75" x2="202.5" y1="133.74" y2="124.96" /><line stroke="black" x1="202.5" x2="206.25" y1="124.96" y2="99.38" /><line stroke="black" x1="206.25" x2="210.0" y1="99.38" y2="70.83" /><line stroke="black" x1="210.0" x2="213.75" y1="70.83" y2="115.26" /><line stroke="black" x1="213.75" x2="217.5" y1="115.26" y2="118.92" /><line stroke="black" x1="217.5" x2="221.25" y1="118.92" y2="120.34" /></svg>